# xmcd
#
# Track frame offsets: 
#        150
#        14075
#        28150
#        37752
#        50072
#        62185
#        76960
#        87280
#        100120
#        112682
#        122787
#        136447
#
# Disc length: 1972 seconds
#
# Revision: 3
# Processed by: cddbd v1.5.2PL0 Copyright (c) Steve Scherf et al.
# Submitted via: ExactAudioCopy v0.95b4
#
DISCID=9a07b20c
DTITLE=Albert Collins - Truckin' With Albert Collins
DYEAR=1900
DGENRE=Blues
TTITLE0=Frosty
TTITLE1=Hot 'N Cold
TTITLE2=Frostbite
TTITLE3=Tremble
TTITLE4=Thaw Out
TTITLE5=Dyin' Flu
TTITLE6=Don't Lose Your Cool
TTITLE7=Backstroke
TTITLE8=Kool Aide
TTITLE9=Shiver 'N Shake
TTITLE10=Icy Blue
TTITLE11=Snow-Cone II
EXTD=MCAD 10423
EXTT0=
EXTT1=
EXTT2=
EXTT3=
EXTT4=
EXTT5=
EXTT6=
EXTT7=
EXTT8=
EXTT9=
EXTT10=
EXTT11=
PLAYORDER=
